<svg class="svg-icon" style="width: 1em;height: 1em;vertical-align: middle;fill: #ffffff;overflow: hidden;" viewBox="0 0 1024 1024" version="1.1" xmlns="http://www.w3.org/2000/svg"><path d="M853.333333 298.666667h-49.92a85.333333 85.333333 0 0 1-60.586666-25.173334l-65.28-65.28A128 128 0 0 0 587.093333 170.666667h-150.186666a128 128 0 0 0-90.453334 37.546666L281.173333 273.493333A85.333333 85.333333 0 0 1 220.586667 298.666667H170.666667a85.333333 85.333333 0 0 0-85.333334 85.333333v384a85.333333 85.333333 0 0 0 85.333334 85.333333h682.666666a85.333333 85.333333 0 0 0 85.333334-85.333333V384a85.333333 85.333333 0 0 0-85.333334-85.333333z m-358.826666 149.333333a96 96 0 0 0-78.506667 94.293333h34.56a10.666667 10.666667 0 0 1 8.96 16.64l-65.706667 98.133334a10.24 10.24 0 0 1-17.493333 0l-65.706667-98.133334a10.666667 10.666667 0 0 1 8.96-16.64h32.426667A160 160 0 0 1 486.826667 384a21.333333 21.333333 0 0 1 25.173333 21.333333v21.333334a21.333333 21.333333 0 0 1-17.493333 21.333333z m209.92 119.04h-32.426667A160 160 0 0 1 537.173333 725.333333a21.333333 21.333333 0 0 1-25.173333-21.333333V682.666667a21.333333 21.333333 0 0 1 17.493333-20.906667 96 96 0 0 0 78.506667-94.293333h-34.56a10.666667 10.666667 0 0 1-8.96-16.64l65.706667-98.133334a10.24 10.24 0 0 1 17.493333 0l65.706667 98.133334a10.666667 10.666667 0 0 1-8.96 16.213333z"  /></svg>